<svg width="250" height="51" viewBox="0 0 250 51" fill="none" xmlns="http://www.w3.org/2000/svg">
<path d="M18.9688 29.5938H8.28125V48H2.25V2.5H17.3125C22.4375 2.5 26.375 3.66667 29.125 6C31.8958 8.33333 33.2812 11.7292 33.2812 16.1875C33.2812 19.0208 32.5104 21.4896 30.9688 23.5938C29.4479 25.6979 27.3229 27.2708 24.5938 28.3125L35.2812 47.625V48H28.8438L18.9688 29.5938ZM8.28125 24.6875H17.5C20.4792 24.6875 22.8438 23.9167 24.5938 22.375C26.3646 20.8333 27.25 18.7708 27.25 16.1875C27.25 13.375 26.4062 11.2188 24.7188 9.71875C23.0521 8.21875 20.6354 7.45833 17.4688 7.4375H8.28125V24.6875ZM73.75 2.5V33.4375C73.7292 37.7292 72.375 41.2396 69.6875 43.9688C67.0208 46.6979 63.3958 48.2292 58.8125 48.5625L57.2188 48.625C52.2396 48.625 48.2708 47.2812 45.3125 44.5938C42.3542 41.9062 40.8542 38.2083 40.8125 33.5V2.5H46.75V33.3125C46.75 36.6042 47.6562 39.1667 49.4688 41C51.2812 42.8125 53.8646 43.7188 57.2188 43.7188C60.6146 43.7188 63.2083 42.8125 65 41C66.8125 39.1875 67.7188 36.6354 67.7188 33.3438V2.5H73.75ZM83.2188 48V2.5H96.0625C100.021 2.5 103.521 3.375 106.562 5.125C109.604 6.875 111.948 9.36458 113.594 12.5938C115.26 15.8229 116.104 19.5312 116.125 23.7188V26.625C116.125 30.9167 115.292 34.6771 113.625 37.9062C111.979 41.1354 109.615 43.6146 106.531 45.3438C103.469 47.0729 99.8958 47.9583 95.8125 48H83.2188ZM89.2188 7.4375V43.0938H95.5312C100.156 43.0938 103.75 41.6562 106.312 38.7812C108.896 35.9062 110.188 31.8125 110.188 26.5V23.8438C110.188 18.6771 108.969 14.6667 106.531 11.8125C104.115 8.9375 100.677 7.47917 96.2188 7.4375H89.2188ZM150.312 27.9062H131.219V48H125.219V2.5H153.406V7.4375H131.219V23H150.312V27.9062ZM166.625 43.0938H188.188V48H160.594V2.5H166.625V43.0938ZM201.469 48H195.469V2.5H201.469V48ZM227.875 19.9375L238.781 2.5H245.844L231.469 25.0625L246.188 48H239.062L227.875 30.25L216.625 48H209.531L224.281 25.0625L209.875 2.5H216.906L227.875 19.9375Z" fill="#D82E2E"/>
<path d="M18.9688 29.5938L20.7311 28.6482L20.1654 27.5938H18.9688V29.5938ZM8.28125 29.5938V27.5938H6.28125V29.5938H8.28125ZM8.28125 48V50H10.2812V48H8.28125ZM2.25 48H0.25V50H2.25V48ZM2.25 2.5V0.5H0.25V2.5H2.25ZM29.125 6L27.831 7.52503L27.8367 7.52982L29.125 6ZM30.9688 23.5938L29.3554 22.4117L29.3478 22.4222L30.9688 23.5938ZM24.5938 28.3125L23.8806 26.444L21.7285 27.2654L22.8438 29.2809L24.5938 28.3125ZM35.2812 47.625H37.2812V47.1085L37.0312 46.6566L35.2812 47.625ZM35.2812 48V50H37.2812V48H35.2812ZM28.8438 48L27.0814 48.9455L27.6471 50H28.8438V48ZM8.28125 24.6875H6.28125V26.6875H8.28125V24.6875ZM24.5938 22.375L23.2805 20.8665L23.2717 20.8743L24.5938 22.375ZM24.7188 9.71875L23.3808 11.2054L23.39 11.2136L24.7188 9.71875ZM17.4688 7.4375L17.4819 5.4375H17.4688V7.4375ZM8.28125 7.4375V5.4375H6.28125V7.4375H8.28125ZM18.9688 27.5938H8.28125V31.5938H18.9688V27.5938ZM6.28125 29.5938V48H10.2812V29.5938H6.28125ZM8.28125 46H2.25V50H8.28125V46ZM4.25 48V2.5H0.25V48H4.25ZM2.25 4.5H17.3125V0.5H2.25V4.5ZM17.3125 4.5C22.1602 4.5 25.5685 5.60525 27.831 7.52502L30.419 4.47498C27.1815 1.72808 22.7148 0.5 17.3125 0.5V4.5ZM27.8367 7.52982C30.0537 9.39678 31.2812 12.1704 31.2812 16.1875H35.2812C35.2812 11.2879 33.7379 7.26988 30.4133 4.47018L27.8367 7.52982ZM31.2812 16.1875C31.2812 18.6344 30.6239 20.6804 29.3554 22.4117L32.5821 24.7758C34.3969 22.2988 35.2812 19.4072 35.2812 16.1875H31.2812ZM29.3478 22.4222C28.083 24.1721 26.2928 25.5233 23.8806 26.444L25.3069 30.181C28.353 29.0184 30.8128 27.2238 32.5897 24.7653L29.3478 22.4222ZM22.8438 29.2809L33.5313 48.5934L37.0312 46.6566L26.3437 27.3441L22.8438 29.2809ZM33.2812 47.625V48H37.2812V47.625H33.2812ZM35.2812 46H28.8438V50H35.2812V46ZM30.6061 47.0545L20.7311 28.6482L17.2064 30.5393L27.0814 48.9455L30.6061 47.0545ZM8.28125 26.6875H17.5V22.6875H8.28125V26.6875ZM17.5 26.6875C20.827 26.6875 23.7083 25.8205 25.9158 23.8757L23.2717 20.8743C21.9792 22.0129 20.1314 22.6875 17.5 22.6875V26.6875ZM25.907 23.8834C28.161 21.9211 29.25 19.2841 29.25 16.1875H25.25C25.25 18.2576 24.5682 19.7455 23.2805 20.8666L25.907 23.8834ZM29.25 16.1875C29.25 12.955 28.2633 10.1936 26.0475 8.22393L23.39 11.2136C24.5492 12.2439 25.25 13.795 25.25 16.1875H29.25ZM26.0567 8.23216C23.9005 6.29156 20.9375 5.46028 17.4819 5.43754L17.4556 9.43746C20.3334 9.45639 22.2037 10.1459 23.3808 11.2053L26.0567 8.23216ZM17.4688 5.4375H8.28125V9.4375H17.4688V5.4375ZM6.28125 7.4375V24.6875H10.2812V7.4375H6.28125ZM73.75 2.5H75.75V0.5H73.75V2.5ZM73.75 33.4375L75.75 33.4472V33.4375H73.75ZM69.6875 43.9688L68.2624 42.5654L68.257 42.571L69.6875 43.9688ZM58.8125 48.5625L58.8909 50.561L58.9243 50.5597L58.9576 50.5572L58.8125 48.5625ZM57.2188 48.625V50.625H57.258L57.2971 50.6235L57.2188 48.625ZM40.8125 33.5H38.8125V33.5088L38.8126 33.5177L40.8125 33.5ZM40.8125 2.5V0.5H38.8125V2.5H40.8125ZM46.75 2.5H48.75V0.5H46.75V2.5ZM49.4688 41L48.0465 42.4061L48.0545 42.4142L49.4688 41ZM65 41L63.5858 39.5858L63.5776 39.594L65 41ZM67.7188 2.5V0.5H65.7188V2.5H67.7188ZM71.75 2.5V33.4375H75.75V2.5H71.75ZM71.75 33.4278C71.7314 37.2661 70.5385 40.2541 68.2625 42.5655L71.1125 45.372C74.2115 42.2251 75.7269 38.1922 75.75 33.4472L71.75 33.4278ZM68.257 42.571C65.9983 44.8827 62.8682 46.2623 58.6674 46.5678L58.9576 50.5572C63.9234 50.1961 68.0434 48.5132 71.118 45.3665L68.257 42.571ZM58.7341 46.564L57.1404 46.6265L57.2971 50.6235L58.8909 50.561L58.7341 46.564ZM57.2188 46.625C52.6095 46.625 49.1631 45.3897 46.6573 43.1134L43.9677 46.0741C47.3786 49.1728 51.8697 50.625 57.2188 50.625V46.625ZM46.6573 43.1134C44.1855 40.8679 42.8501 37.7413 42.8124 33.4823L38.8126 33.5177C38.8582 38.6753 40.5228 42.9446 43.9677 46.0741L46.6573 43.1134ZM42.8125 33.5V2.5H38.8125V33.5H42.8125ZM40.8125 4.5H46.75V0.5H40.8125V4.5ZM44.75 2.5V33.3125H48.75V2.5H44.75ZM44.75 33.3125C44.75 36.9781 45.7689 40.1023 48.0465 42.4061L50.891 39.5939C49.5436 38.231 48.75 36.2303 48.75 33.3125H44.75ZM48.0545 42.4142C50.3474 44.7071 53.5044 45.7188 57.2188 45.7188V41.7188C54.2248 41.7188 52.2151 40.9179 50.883 39.5858L48.0545 42.4142ZM57.2188 45.7188C60.9651 45.7188 64.1429 44.712 66.4224 42.406L63.5776 39.594C62.2738 40.913 60.2641 41.7188 57.2188 41.7188V45.7188ZM66.4142 42.4142C68.7003 40.1281 69.7188 37.0081 69.7188 33.3438H65.7188C65.7188 36.2628 64.9247 38.2469 63.5858 39.5858L66.4142 42.4142ZM69.7188 33.3438V2.5H65.7188V33.3438H69.7188ZM67.7188 4.5H73.75V0.5H67.7188V4.5ZM83.2188 48H81.2188V50H83.2188V48ZM83.2188 2.5V0.5H81.2188V2.5H83.2188ZM113.594 12.5938L111.812 13.502L111.817 13.511L113.594 12.5938ZM116.125 23.7188L118.125 23.7188L118.125 23.7088L116.125 23.7188ZM113.625 37.9062L111.848 36.989L111.843 36.9981L113.625 37.9062ZM106.531 45.3438L105.553 43.5993L105.548 43.6022L106.531 45.3438ZM95.8125 48V50H95.8227L95.8329 49.9999L95.8125 48ZM89.2188 7.4375V5.4375H87.2188V7.4375H89.2188ZM89.2188 43.0938H87.2188V45.0938H89.2188V43.0938ZM106.312 38.7812L104.825 37.4445L104.819 37.4505L106.312 38.7812ZM106.531 11.8125L105 13.0994L105.005 13.1054L105.01 13.1113L106.531 11.8125ZM96.2188 7.4375L96.2374 5.43759L96.2281 5.4375H96.2188V7.4375ZM85.2188 48V2.5H81.2188V48H85.2188ZM83.2188 4.5H96.0625V0.5H83.2188V4.5ZM96.0625 4.5C99.7165 4.5 102.864 5.30457 105.565 6.85856L107.56 3.39144C104.178 1.44543 100.325 0.5 96.0625 0.5V4.5ZM105.565 6.85856C108.259 8.40866 110.336 10.6061 111.812 13.5019L115.376 11.6856C113.56 8.12305 110.949 5.34134 107.56 3.39144L105.565 6.85856ZM111.817 13.511C113.318 16.4196 114.106 19.8087 114.125 23.7287L118.125 23.7088C118.103 19.2538 117.203 15.2262 115.371 11.6765L111.817 13.511ZM114.125 23.7188V26.625H118.125V23.7188H114.125ZM114.125 26.625C114.125 30.6551 113.344 34.0905 111.848 36.989L115.402 38.8235C117.24 35.2637 118.125 31.1782 118.125 26.625H114.125ZM111.843 36.9981C110.372 39.8847 108.283 42.0685 105.553 43.5993L107.51 47.0882C110.947 45.1606 113.586 42.3862 115.407 38.8144L111.843 36.9981ZM105.548 43.6022C102.824 45.1403 99.5926 45.9613 95.7921 46.0001L95.8329 49.9999C100.199 49.9553 104.114 49.0055 107.515 47.0853L105.548 43.6022ZM95.8125 46H83.2188V50H95.8125V46ZM87.2188 7.4375V43.0938H91.2188V7.4375H87.2188ZM89.2188 45.0938H95.5312V41.0938H89.2188V45.0938ZM95.5312 45.0938C100.602 45.0938 104.788 43.4979 107.806 40.112L104.819 37.4505C102.712 39.8146 99.7108 41.0938 95.5312 41.0938V45.0938ZM107.8 40.118C110.819 36.7578 112.188 32.1202 112.188 26.5H108.188C108.188 31.5048 106.972 35.0547 104.825 37.4445L107.8 40.118ZM112.188 26.5V23.8438H108.188V26.5H112.188ZM112.188 23.8438C112.188 18.3799 110.898 13.8461 108.052 10.5137L105.01 13.1113C107.039 15.4873 108.188 18.9743 108.188 23.8438H112.188ZM108.062 10.5256C105.199 7.11892 101.159 5.48359 96.2374 5.43759L96.2001 9.43741C100.195 9.47475 103.031 10.7561 105 13.0994L108.062 10.5256ZM96.2188 5.4375H89.2188V9.4375H96.2188V5.4375ZM150.312 27.9062V29.9062H152.312V27.9062H150.312ZM131.219 27.9062V25.9062H129.219V27.9062H131.219ZM131.219 48V50H133.219V48H131.219ZM125.219 48H123.219V50H125.219V48ZM125.219 2.5V0.5H123.219V2.5H125.219ZM153.406 2.5H155.406V0.5H153.406V2.5ZM153.406 7.4375V9.4375H155.406V7.4375H153.406ZM131.219 7.4375V5.4375H129.219V7.4375H131.219ZM131.219 23H129.219V25H131.219V23ZM150.312 23H152.312V21H150.312V23ZM150.312 25.9062H131.219V29.9062H150.312V25.9062ZM129.219 27.9062V48H133.219V27.9062H129.219ZM131.219 46H125.219V50H131.219V46ZM127.219 48V2.5H123.219V48H127.219ZM125.219 4.5H153.406V0.5H125.219V4.5ZM151.406 2.5V7.4375H155.406V2.5H151.406ZM153.406 5.4375H131.219V9.4375H153.406V5.4375ZM129.219 7.4375V23H133.219V7.4375H129.219ZM131.219 25H150.312V21H131.219V25ZM148.312 23V27.9062H152.312V23H148.312ZM166.625 43.0938H164.625V45.0938H166.625V43.0938ZM188.188 43.0938H190.188V41.0938H188.188V43.0938ZM188.188 48V50H190.188V48H188.188ZM160.594 48H158.594V50H160.594V48ZM160.594 2.5V0.5H158.594V2.5H160.594ZM166.625 2.5H168.625V0.5H166.625V2.5ZM166.625 45.0938H188.188V41.0938H166.625V45.0938ZM186.188 43.0938V48H190.188V43.0938H186.188ZM188.188 46H160.594V50H188.188V46ZM162.594 48V2.5H158.594V48H162.594ZM160.594 4.5H166.625V0.5H160.594V4.5ZM164.625 2.5V43.0938H168.625V2.5H164.625ZM201.469 48V50H203.469V48H201.469ZM195.469 48H193.469V50H195.469V48ZM195.469 2.5V0.5H193.469V2.5H195.469ZM201.469 2.5H203.469V0.5H201.469V2.5ZM201.469 46H195.469V50H201.469V46ZM197.469 48V2.5H193.469V48H197.469ZM195.469 4.5H201.469V0.5H195.469V4.5ZM199.469 2.5V48H203.469V2.5H199.469ZM227.875 19.9375L226.182 21.0024L227.88 23.7014L229.571 20.998L227.875 19.9375ZM238.781 2.5V0.5H237.673L237.086 1.43946L238.781 2.5ZM245.844 2.5L247.53 3.57466L249.489 0.5H245.844V2.5ZM231.469 25.0625L229.782 23.9878L229.095 25.0664L229.785 26.1426L231.469 25.0625ZM246.188 48V50H249.847L247.871 46.9199L246.188 48ZM239.062 48L237.371 49.0664L237.959 50H239.062V48ZM227.875 30.25L229.567 29.1836L227.88 26.5066L226.186 29.1793L227.875 30.25ZM216.625 48V50H217.725L218.314 49.0707L216.625 48ZM209.531 48L207.849 46.9183L205.867 50H209.531V48ZM224.281 25.0625L225.963 26.1442L226.657 25.0663L225.967 23.9862L224.281 25.0625ZM209.875 2.5V0.5H206.225L208.189 3.57632L209.875 2.5ZM216.906 2.5L218.599 1.4351L218.011 0.5H216.906V2.5ZM229.571 20.998L240.477 3.56054L237.086 1.43946L226.179 18.877L229.571 20.998ZM238.781 4.5H245.844V0.5H238.781V4.5ZM244.157 1.42534L229.782 23.9878L233.155 26.1372L247.53 3.57466L244.157 1.42534ZM229.785 26.1426L244.504 49.0801L247.871 46.9199L233.152 23.9824L229.785 26.1426ZM246.188 46H239.062V50H246.188V46ZM240.754 46.9336L229.567 29.1836L226.183 31.3164L237.371 49.0664L240.754 46.9336ZM226.186 29.1793L214.936 46.9293L218.314 49.0707L229.564 31.3207L226.186 29.1793ZM216.625 46H209.531V50H216.625V46ZM211.213 49.0817L225.963 26.1442L222.599 23.9808L207.849 46.9183L211.213 49.0817ZM225.967 23.9862L211.561 1.42368L208.189 3.57632L222.596 26.1388L225.967 23.9862ZM209.875 4.5H216.906V0.5H209.875V4.5ZM215.213 3.5649L226.182 21.0024L229.568 18.8726L218.599 1.4351L215.213 3.5649Z" fill="#D82E2E"/>
</svg>
